# xmcd
#
# Track frame offsets:
#	150
#	23112
#	33552
#	47542
#	61185
#	72920
#	87100
#	99395
#	113412
#	127172
#
# Disc length: 2274 seconds
#
# Revision: 4
# Processed by: cddbd v1.5.2PL0 Copyright (c) Steve Scherf et al.
# Submitted via: audiograbber 1.83.01
#
DISCID=7a08e00a
DTITLE=Isaac Payton Sweat - Cotten Eyed Joe
DYEAR=1900
DGENRE=Country
TTITLE0=Cotton Eyed Joe - Schottische
TTITLE1=Hey Barnum And Bailey
TTITLE2=All This Ol' Wailin'
TTITLE3=Home Is Anywhere You Hang Your Heart
TTITLE4=Jole Blon
TTITLE5=National Chili Anthem
TTITLE6=Shed So Many Tears
TTITLE7=I Could Never Pass A Honky Tonk
TTITLE8=Goodbye Motor City
TTITLE9=Cotton Eyed Joe - Schottische (12'' Dance Version)
EXTD=ID3G: 2
EXTT0=
EXTT1=
EXTT2=
EXTT3=
EXTT4=
EXTT5=
EXTT6=
EXTT7=
EXTT8=
EXTT9=
PLAYORDER=
